# xmcd CD database file
#
# Track frame offsets:
#	150
#	15331
#	35441
#	53404
#	70684
#	78384
#	93131
#	106604
#	128977
#	148200
#	166739
#	194792
#	211022
#
# Disc length: 3036 seconds
#
# Revision: 0
# Processed by: cddbd v1.5.1PL0 Copyright (c) Steve Scherf et al.
# Submitted via: CDex 1.51
#
DISCID=9f0bda0d
DTITLE=Michael Huygen - Directo al Corazon
DYEAR=1900
DGENRE=New Age
TTITLE0=El poder de tu sonrisa
TTITLE1=Sólo pensando en tí
TTITLE2=Ternura
TTITLE3=Tú
TTITLE4=Spectrum aeris
TTITLE5=Venezia
TTITLE6=Nostalgia
TTITLE7=Folie d'amour
TTITLE8=Macrocosmos
TTITLE9=Paz desde tus ojos
TTITLE10=Profunda enfermedad de amor
TTITLE11=Dernier message
TTITLE12=Hasta siempre
EXTD=
EXTT0=
EXTT1=
EXTT2=
EXTT3=
EXTT4=
EXTT5=
EXTT6=
EXTT7=
EXTT8=
EXTT9=
EXTT10=
EXTT11=
EXTT12=
PLAYORDER=
